<?xml version="1.0" encoding="utf-8"?>
<!-- Generator: Adobe Illustrator 19.0.0, SVG Export Plug-In . SVG Version: 6.00 Build 0)  -->
<svg version="1.1" id="圖層_1" xmlns="http://www.w3.org/2000/svg" xmlns:xlink="http://www.w3.org/1999/xlink" x="0px" y="0px"
	 width="500px" height="500px" viewBox="0 0 500 500" style="enable-background:new 0 0 500 500;" xml:space="preserve">
<style type="text/css">
	.st0{fill:url(#XMLID_2_);}
	.st1{fill:#FFFFFF;}
</style>
<linearGradient id="XMLID_2_" gradientUnits="userSpaceOnUse" x1="0" y1="250" x2="500" y2="250">
	<stop  offset="0" style="stop-color:#DD5E89"/>
	<stop  offset="1" style="stop-color:#F7BB97"/>
</linearGradient>
<rect id="XMLID_104_" class="st0" width="500" height="500"/>
<g id="XMLID_75_">
	<path id="XMLID_137_" class="st1" d="M175.8,239.1c1,0.4,2,0.9,2.8,1.3c0.8,0.4,1.6,1,2.2,1.6s1.1,1.3,1.4,2.2
		c0.3,0.9,0.5,1.9,0.5,3.1c0,1.3-0.2,2.5-0.7,3.6c-0.5,1.1-1.1,2-2,2.7s-2,1.3-3.3,1.8c-1.3,0.4-2.8,0.6-4.5,0.6
		c-1.5,0-2.9-0.1-4.1-0.4c-1.2-0.2-2.5-0.6-3.8-1.2c0.1-0.9,0.3-1.8,0.5-2.8c0.2-1,0.5-2,0.9-3c2.3,1,4.3,1.5,6,1.5
		c1.3,0,2.3-0.2,3-0.6c0.7-0.4,1.1-1.1,1.1-2c0-0.4-0.1-0.7-0.2-1c-0.2-0.3-0.3-0.5-0.6-0.7c-0.3-0.2-0.5-0.4-0.8-0.5
		c-0.3-0.1-0.6-0.3-1-0.4l-2.1-0.8c-0.9-0.3-1.7-0.7-2.5-1.2c-0.7-0.4-1.4-1-1.9-1.6c-0.5-0.6-0.9-1.3-1.2-2.1s-0.4-1.7-0.4-2.8
		c0-1.3,0.2-2.5,0.7-3.5c0.4-1,1.1-1.9,1.9-2.6s1.8-1.2,2.9-1.6c1.1-0.4,2.4-0.5,3.9-0.5c1.3,0,2.5,0.1,3.7,0.4s2.5,0.6,3.8,1.1
		c-0.1,0.8-0.3,1.7-0.5,2.6c-0.3,1-0.6,1.9-1,2.7c-0.6-0.3-1.4-0.6-2.3-0.9c-0.9-0.3-2-0.4-3.3-0.4c-0.4,0-0.8,0-1.1,0.1
		c-0.4,0.1-0.7,0.2-1,0.4c-0.3,0.2-0.5,0.4-0.7,0.7c-0.2,0.3-0.3,0.6-0.3,1.1c0,0.7,0.2,1.3,0.7,1.6c0.5,0.3,1,0.6,1.7,0.9
		L175.8,239.1z"/>
	<path id="XMLID_2530_" class="st1" d="M190.4,247.8c0.3,1,0.8,1.7,1.4,2.2c0.7,0.4,1.6,0.6,2.7,0.6c0.7,0,1.5-0.1,2.4-0.3
		c0.9-0.2,1.8-0.4,2.7-0.8c0.3,0.6,0.7,1.4,0.9,2.3c0.3,0.9,0.4,1.8,0.4,2.8c-2.2,0.8-4.5,1.2-6.8,1.2c-1.8,0-3.3-0.3-4.6-0.7
		c-1.3-0.5-2.3-1.2-3.1-2.1s-1.4-1.9-1.8-3.2c-0.4-1.2-0.6-2.6-0.6-4c0-1.4,0.2-2.8,0.6-4c0.4-1.2,1-2.3,1.8-3.3
		c0.8-0.9,1.8-1.7,3-2.2c1.2-0.5,2.6-0.8,4.2-0.8c1.3,0,2.5,0.2,3.5,0.7c1,0.4,1.9,1.1,2.6,1.9c0.7,0.8,1.3,1.7,1.7,2.8
		c0.4,1.1,0.6,2.3,0.6,3.6c0,0.7,0,1.3-0.1,1.8c-0.1,0.5-0.1,1-0.2,1.3H190.4z M193.4,240.5c-0.8,0-1.5,0.3-2.1,0.7
		c-0.6,0.5-0.9,1.3-1,2.3h6c0-0.9-0.3-1.6-0.8-2.2S194.3,240.5,193.4,240.5z"/>
	<path id="XMLID_2533_" class="st1" d="M209.4,247.8c0.3,1,0.8,1.7,1.4,2.2c0.7,0.4,1.6,0.6,2.7,0.6c0.7,0,1.5-0.1,2.4-0.3
		c0.9-0.2,1.8-0.4,2.7-0.8c0.3,0.6,0.7,1.4,0.9,2.3c0.3,0.9,0.4,1.8,0.4,2.8c-2.2,0.8-4.5,1.2-6.8,1.2c-1.8,0-3.3-0.3-4.6-0.7
		c-1.3-0.5-2.3-1.2-3.1-2.1s-1.4-1.9-1.8-3.2c-0.4-1.2-0.6-2.6-0.6-4c0-1.4,0.2-2.8,0.6-4c0.4-1.2,1-2.3,1.8-3.3
		c0.8-0.9,1.8-1.7,3-2.2c1.2-0.5,2.6-0.8,4.2-0.8c1.3,0,2.5,0.2,3.5,0.7c1,0.4,1.9,1.1,2.6,1.9c0.7,0.8,1.3,1.7,1.7,2.8
		c0.4,1.1,0.6,2.3,0.6,3.6c0,0.7,0,1.3-0.1,1.8c-0.1,0.5-0.1,1-0.2,1.3H209.4z M212.4,240.5c-0.8,0-1.5,0.3-2.1,0.7
		c-0.6,0.5-0.9,1.3-1,2.3h6c0-0.9-0.3-1.6-0.8-2.2S213.3,240.5,212.4,240.5z"/>
	<path id="XMLID_2536_" class="st1" d="M229.6,235.7c2,0,3.7,0.2,5.2,0.7s2.6,1.1,3.5,2s1.6,1.9,2,3.1c0.4,1.2,0.6,2.6,0.6,4.1
		c0,1.6-0.2,3-0.7,4.3s-1.1,2.4-2.1,3.3s-2.1,1.6-3.6,2.1c-1.5,0.5-3.3,0.7-5.4,0.7c-1.2,0-2.3,0-3.3-0.1c-1-0.1-2-0.2-3-0.4v-19.2
		c1-0.1,2.2-0.2,3.3-0.4S228.6,235.7,229.6,235.7z M229.3,250.6c0.1,0,0.2,0,0.4,0c0.2,0,0.4,0,0.7,0c1.4,0,2.4-0.4,3.1-1.2
		c0.7-0.8,1-2.1,1-3.9c0-1.6-0.3-2.8-1-3.5c-0.7-0.7-1.6-1.1-2.9-1.1c-0.3,0-0.6,0-0.8,0c-0.2,0-0.4,0.1-0.6,0.1V250.6z"/>
	<path id="XMLID_2539_" class="st1" d="M252.4,243.4c0.7,0.2,1.4,0.4,2,0.7c0.6,0.3,1.1,0.7,1.6,1.1c0.4,0.4,0.8,1,1,1.6
		s0.4,1.4,0.4,2.4c0,0.9-0.2,1.8-0.6,2.7c-0.4,0.8-1,1.5-1.7,2.1c-0.8,0.6-1.7,1.1-2.8,1.4c-1.1,0.3-2.4,0.5-3.8,0.5
		c-1.2,0-2.3-0.1-3.3-0.3c-1-0.2-2.1-0.5-3.3-0.9c0.1-1.7,0.6-3.4,1.4-5.2c0.8,0.4,1.6,0.7,2.5,0.8c0.9,0.2,1.7,0.3,2.6,0.3
		c0.3,0,0.6,0,0.9,0c0.3,0,0.6-0.1,0.9-0.2c0.2-0.1,0.5-0.2,0.6-0.4s0.2-0.3,0.2-0.6c0-0.3-0.2-0.6-0.5-0.7s-0.7-0.3-1.1-0.4
		l-2.5-0.7c-1.3-0.4-2.4-1-3.3-1.9c-0.9-0.9-1.3-2.1-1.3-3.7c0-1,0.2-1.9,0.6-2.7c0.4-0.8,1-1.5,1.7-2c0.7-0.6,1.6-1,2.6-1.3
		c1-0.3,2.1-0.4,3.3-0.4c0.9,0,2,0.1,3.1,0.3c1.1,0.2,2.2,0.5,3.3,0.9c-0.1,0.8-0.2,1.7-0.5,2.6c-0.3,0.9-0.6,1.7-0.9,2.4
		c-0.7-0.3-1.5-0.5-2.4-0.7c-0.9-0.2-1.8-0.3-2.6-0.3c-1.2,0-1.8,0.3-1.8,1c0,0.3,0.1,0.5,0.4,0.6c0.3,0.2,0.6,0.3,0.9,0.4
		L252.4,243.4z"/>
	<path id="XMLID_2541_" class="st1" d="M259.6,236.2c0.5-0.1,1.1-0.1,1.7-0.2s1.3-0.1,2-0.2c0.7,0,1.3-0.1,2-0.1c0.6,0,1.2,0,1.7,0
		c3.1,0,5.5,0.4,7,1.3c1.5,0.9,2.3,2.3,2.3,4.1c0,0.9-0.2,1.8-0.7,2.4c-0.4,0.7-1,1.2-1.8,1.7c1,0.4,1.9,0.9,2.6,1.6
		c0.7,0.7,1,1.7,1,3c0,2.3-0.8,3.9-2.5,4.8c-1.7,0.9-4.2,1.3-7.5,1.3c-0.9,0-2,0-3.4-0.1c-1.4-0.1-2.9-0.2-4.3-0.4V236.2z
		 M265.8,243.6h1.8c0.9,0,1.6-0.2,1.9-0.6c0.3-0.4,0.5-0.8,0.5-1.3c0-0.4-0.2-0.8-0.5-1.2c-0.3-0.4-1-0.5-1.9-0.5c-0.3,0-0.6,0-1,0
		c-0.4,0-0.7,0-0.9,0.1V243.6z M265.8,247.5v3.9c0.1,0,0.3,0,0.6,0c0.3,0,0.8,0,1.3,0c1,0,1.8-0.2,2.2-0.5s0.7-0.8,0.7-1.5
		c0-0.2,0-0.5-0.1-0.7c-0.1-0.2-0.2-0.4-0.5-0.6c-0.2-0.2-0.5-0.3-0.9-0.4c-0.4-0.1-0.9-0.2-1.6-0.2H265.8z"/>
	<path id="XMLID_2545_" class="st1" d="M278.5,249.2c0-1.2,0.3-2.2,0.8-3c0.5-0.8,1.2-1.4,2-1.9c0.8-0.5,1.7-0.8,2.7-1
		c1-0.2,2-0.3,2.9-0.3h2.3c0-0.4-0.1-0.8-0.4-1.1c-0.2-0.3-0.5-0.5-0.9-0.7c-0.3-0.2-0.7-0.3-1.2-0.3c-0.4-0.1-0.9-0.1-1.3-0.1
		c-0.6,0-1.3,0.1-2.1,0.2c-0.8,0.1-1.6,0.4-2.5,0.7c-0.2-0.4-0.4-0.8-0.6-1.2c-0.2-0.3-0.3-0.7-0.4-1.1c-0.1-0.4-0.1-0.7-0.2-1.1
		c0-0.4-0.1-0.8-0.1-1.3c1.2-0.4,2.4-0.7,3.6-0.9c1.2-0.2,2.3-0.3,3.2-0.3c1.3,0,2.5,0.2,3.5,0.5s1.9,0.8,2.7,1.4
		c0.7,0.6,1.3,1.5,1.7,2.5c0.4,1,0.6,2.2,0.6,3.6v11c-0.9,0.3-2.1,0.5-3.4,0.8c-1.3,0.3-2.8,0.4-4.3,0.4c-1.3,0-2.5-0.1-3.6-0.4
		c-1.1-0.2-2-0.6-2.8-1.1c-0.8-0.5-1.4-1.2-1.8-2.1S278.5,250.4,278.5,249.2z M287.3,251.3c0.2,0,0.5,0,1-0.1c0.4,0,0.7-0.1,0.9-0.1
		v-4.1h-2.1c-0.9,0-1.6,0.2-2.2,0.6s-0.9,0.9-0.9,1.6c0,0.5,0.1,0.9,0.3,1.2c0.2,0.3,0.5,0.5,0.8,0.7s0.7,0.3,1.1,0.3
		C286.7,251.3,287,251.3,287.3,251.3z"/>
	<path id="XMLID_2548_" class="st1" d="M305.8,235.8c1.1,0,2.2,0.1,3.3,0.3c1.1,0.2,2.1,0.6,3,1.2c0.9,0.6,1.6,1.5,2.2,2.6
		c0.6,1.1,0.8,2.6,0.8,4.5v11.2c-0.6,0.1-1.2,0.2-1.8,0.2c-0.5,0-1,0.1-1.4,0.1c-0.4,0-0.9,0-1.4-0.1c-0.5,0-1.1-0.1-1.8-0.2V245
		c0-1.3-0.3-2.3-0.7-2.8c-0.5-0.6-1.3-0.9-2.3-0.9c-0.3,0-0.6,0-0.9,0.1c-0.3,0.1-0.5,0.1-0.6,0.2v14c-0.6,0.1-1.2,0.2-1.8,0.2
		c-0.5,0-1,0.1-1.4,0.1c-0.4,0-0.9,0-1.4-0.1c-0.5,0-1.1-0.1-1.8-0.2v-18.4c0.9-0.3,1.9-0.6,3.2-0.9
		C302.4,235.9,303.9,235.8,305.8,235.8z"/>
	<path id="XMLID_2550_" class="st1" d="M318,236.2c0.5-0.1,1.1-0.2,1.6-0.3c0.5,0,1.1-0.1,1.6-0.1c0.5,0,1,0,1.5,0.1
		c0.5,0.1,1.1,0.1,1.6,0.3v19.3c-0.6,0.1-1.2,0.2-1.8,0.2c-0.5,0-1,0.1-1.4,0.1c-0.4,0-0.9,0-1.4-0.1c-0.5,0-1.1-0.1-1.8-0.2V236.2z
		 M329.3,236.2c0.4-0.1,1-0.2,1.6-0.2s1.2-0.1,1.7-0.1c0.6,0,1.3,0,2,0.1s1.2,0.1,1.6,0.2l-4.6,9l5.2,10.3c-0.4,0.1-1,0.2-1.7,0.2
		s-1.3,0.1-1.8,0.1c-0.6,0-1.3,0-1.9-0.1c-0.6,0-1.1-0.1-1.5-0.2l-5-10L329.3,236.2z"/>
</g>
<g id="XMLID_73_">
	<path id="XMLID_177_" class="st1" d="M192.1,271.4h-3.8l-0.7,2.3c-0.1,0-0.2,0-0.4,0c-0.1,0-0.2,0-0.4,0c-0.1,0-0.3,0-0.4,0
		s-0.2,0-0.3,0l3.3-10.1c0.1,0,0.3,0,0.4,0c0.1,0,0.3,0,0.4,0c0.1,0,0.3,0,0.4,0c0.1,0,0.3,0,0.4,0l3.3,10.1c-0.1,0-0.2,0-0.4,0
		c-0.1,0-0.3,0-0.4,0c-0.1,0-0.2,0-0.4,0s-0.2,0-0.4,0L192.1,271.4z M188.6,270.2h3.1l-1.5-5.2L188.6,270.2z"/>
	<path id="XMLID_2497_" class="st1" d="M195.1,263.7c0.1,0,0.2,0,0.3,0c0.1,0,0.2,0,0.4,0c0.1,0,0.2,0,0.4,0c0.1,0,0.2,0,0.4,0v8.8
		h4c0,0.1,0,0.2,0,0.3s0,0.2,0,0.3c0,0.2,0,0.4,0,0.6h-5.4V263.7z"/>
	<path id="XMLID_2499_" class="st1" d="M201.3,263.7c0.1,0,0.2,0,0.3,0c0.1,0,0.2,0,0.4,0c0.1,0,0.2,0,0.4,0c0.1,0,0.2,0,0.4,0v8.8
		h4c0,0.1,0,0.2,0,0.3s0,0.2,0,0.3c0,0.2,0,0.4,0,0.6h-5.4V263.7z"/>
	<path id="XMLID_2501_" class="st1" d="M209.9,272.2c0.3,0.1,0.6,0.2,1,0.3c0.3,0.1,0.7,0.1,1.2,0.1c0.8,0,1.3-0.2,1.7-0.5
		c0.4-0.3,0.6-0.7,0.6-1.3c0-0.3,0-0.5-0.1-0.7c-0.1-0.2-0.2-0.3-0.4-0.5s-0.4-0.3-0.6-0.4c-0.2-0.1-0.5-0.2-0.8-0.4l-0.8-0.3
		c-0.3-0.1-0.5-0.2-0.7-0.4s-0.4-0.3-0.6-0.5c-0.2-0.2-0.3-0.4-0.4-0.7c-0.1-0.3-0.1-0.6-0.1-0.9c0-0.9,0.3-1.5,0.9-2
		c0.6-0.5,1.4-0.7,2.4-0.7c0.4,0,0.9,0,1.3,0.1s0.8,0.2,1.1,0.3c0,0.4-0.2,0.8-0.3,1.2c-0.3-0.1-0.5-0.2-0.9-0.3
		c-0.3-0.1-0.7-0.1-1.1-0.1c-0.6,0-1,0.1-1.4,0.4s-0.5,0.6-0.5,1.1c0,0.2,0,0.4,0.1,0.5c0.1,0.2,0.2,0.3,0.3,0.4s0.3,0.2,0.5,0.3
		s0.4,0.2,0.6,0.3l0.8,0.3c0.4,0.1,0.7,0.3,1,0.5c0.3,0.2,0.5,0.4,0.7,0.6c0.2,0.2,0.4,0.5,0.5,0.8c0.1,0.3,0.2,0.7,0.2,1.1
		c0,1-0.3,1.7-1,2.3c-0.7,0.6-1.6,0.8-2.8,0.8c-0.3,0-0.6,0-0.8,0c-0.2,0-0.5,0-0.7-0.1c-0.2,0-0.4-0.1-0.6-0.1
		c-0.2-0.1-0.4-0.1-0.6-0.2c0-0.2,0.1-0.4,0.1-0.6C209.8,272.7,209.9,272.4,209.9,272.2z"/>
	<path id="XMLID_2503_" class="st1" d="M218.9,264.9h-2.6c0-0.1,0-0.2,0-0.3s0-0.2,0-0.3c0-0.1,0-0.2,0-0.3c0-0.1,0-0.2,0-0.3h6.7
		c0,0.1,0,0.2,0,0.3c0,0.1,0,0.2,0,0.3c0,0.1,0,0.2,0,0.3s0,0.2,0,0.3h-2.6v8.8c-0.2,0-0.4,0-0.7,0c-0.3,0-0.5,0-0.7,0V264.9z"/>
	<path id="XMLID_2505_" class="st1" d="M227.9,271.4h-3.8l-0.7,2.3c-0.1,0-0.2,0-0.4,0c-0.1,0-0.2,0-0.4,0c-0.1,0-0.3,0-0.4,0
		s-0.2,0-0.3,0l3.3-10.1c0.1,0,0.3,0,0.4,0c0.1,0,0.3,0,0.4,0c0.1,0,0.3,0,0.4,0c0.1,0,0.3,0,0.4,0l3.3,10.1c-0.1,0-0.2,0-0.4,0
		c-0.1,0-0.3,0-0.4,0c-0.1,0-0.2,0-0.4,0s-0.2,0-0.4,0L227.9,271.4z M224.4,270.2h3.1L226,265L224.4,270.2z"/>
	<path id="XMLID_2508_" class="st1" d="M230.9,263.7c0.2,0,0.4,0,0.6-0.1s0.3,0,0.5,0c0.2,0,0.3,0,0.5,0c0.2,0,0.4,0,0.6,0
		c0.5,0,0.9,0,1.4,0.1s0.9,0.3,1.2,0.5c0.4,0.2,0.7,0.5,0.9,0.9c0.2,0.4,0.3,0.9,0.3,1.5c0,0.4-0.1,0.7-0.2,1
		c-0.1,0.3-0.3,0.6-0.5,0.8c-0.2,0.2-0.4,0.4-0.6,0.6s-0.5,0.3-0.7,0.4l-0.2,0.1l2.9,4.3c-0.3,0-0.5,0-0.9,0c-0.3,0-0.5,0-0.8,0
		l-3.2-4.7V269l0.1,0c0.3-0.1,0.5-0.2,0.8-0.3s0.5-0.3,0.8-0.4c0.2-0.2,0.4-0.4,0.6-0.7c0.2-0.3,0.2-0.6,0.2-0.9
		c0-0.7-0.2-1.2-0.6-1.5s-0.9-0.5-1.6-0.5c-0.2,0-0.3,0-0.4,0c-0.1,0-0.3,0-0.5,0v9c-0.1,0-0.2,0-0.3,0c-0.1,0-0.2,0-0.4,0
		s-0.2,0-0.4,0s-0.3,0-0.4,0V263.7z"/>
	<path id="XMLID_2510_" class="st1" d="M240.1,264.9h-2.6c0-0.1,0-0.2,0-0.3s0-0.2,0-0.3c0-0.1,0-0.2,0-0.3c0-0.1,0-0.2,0-0.3h6.7
		c0,0.1,0,0.2,0,0.3c0,0.1,0,0.2,0,0.3c0,0.1,0,0.2,0,0.3s0,0.2,0,0.3h-2.6v8.8c-0.2,0-0.4,0-0.7,0c-0.3,0-0.5,0-0.7,0V264.9z"/>
	<path id="XMLID_2512_" class="st1" d="M247.7,263.7h5.3c0,0.1,0,0.2,0,0.3c0,0.1,0,0.2,0,0.3c0,0.1,0,0.2,0,0.3c0,0.1,0,0.2,0,0.3
		h-3.8v3h3.2c0,0.1,0,0.2,0,0.3c0,0.1,0,0.2,0,0.3s0,0.2,0,0.3c0,0.1,0,0.2,0,0.3h-3.2v4.6c-0.1,0-0.2,0-0.3,0s-0.2,0-0.4,0
		c-0.1,0-0.2,0-0.4,0c-0.1,0-0.2,0-0.3,0V263.7z"/>
	<path id="XMLID_2514_" class="st1" d="M254.1,263.7c0.2,0,0.4,0,0.6-0.1s0.3,0,0.5,0c0.2,0,0.3,0,0.5,0c0.2,0,0.4,0,0.6,0
		c0.5,0,0.9,0,1.4,0.1s0.9,0.3,1.2,0.5c0.4,0.2,0.7,0.5,0.9,0.9c0.2,0.4,0.3,0.9,0.3,1.5c0,0.4-0.1,0.7-0.2,1
		c-0.1,0.3-0.3,0.6-0.5,0.8c-0.2,0.2-0.4,0.4-0.6,0.6s-0.5,0.3-0.7,0.4l-0.2,0.1l2.9,4.3c-0.3,0-0.5,0-0.9,0c-0.3,0-0.5,0-0.8,0
		l-3.2-4.7V269l0.1,0c0.3-0.1,0.5-0.2,0.8-0.3s0.5-0.3,0.8-0.4c0.2-0.2,0.4-0.4,0.6-0.7c0.2-0.3,0.2-0.6,0.2-0.9
		c0-0.7-0.2-1.2-0.6-1.5s-0.9-0.5-1.6-0.5c-0.2,0-0.3,0-0.4,0c-0.1,0-0.3,0-0.5,0v9c-0.1,0-0.2,0-0.3,0c-0.1,0-0.2,0-0.4,0
		s-0.2,0-0.4,0s-0.3,0-0.4,0V263.7z"/>
	<path id="XMLID_2516_" class="st1" d="M265.4,273.9c-0.7,0-1.4-0.1-1.9-0.4c-0.5-0.3-1-0.6-1.3-1.1s-0.6-1-0.8-1.6
		c-0.2-0.6-0.3-1.3-0.3-2.1c0-0.8,0.1-1.5,0.3-2.1c0.2-0.6,0.4-1.2,0.8-1.6s0.8-0.8,1.3-1.1c0.5-0.3,1.2-0.4,1.9-0.4
		s1.4,0.1,1.9,0.4c0.5,0.3,1,0.6,1.3,1.1c0.4,0.5,0.6,1,0.8,1.6c0.2,0.6,0.3,1.3,0.3,2.1c0,0.8-0.1,1.5-0.3,2.1
		c-0.2,0.6-0.4,1.2-0.8,1.6c-0.4,0.5-0.8,0.8-1.3,1.1C266.7,273.8,266.1,273.9,265.4,273.9z M265.4,272.7c0.5,0,0.9-0.1,1.2-0.3
		c0.3-0.2,0.6-0.4,0.8-0.8s0.4-0.8,0.5-1.2s0.2-1,0.2-1.7c0-0.6-0.1-1.2-0.2-1.6s-0.3-0.9-0.5-1.2c-0.2-0.3-0.5-0.6-0.8-0.8
		c-0.3-0.2-0.7-0.3-1.2-0.3s-0.9,0.1-1.2,0.3c-0.3,0.2-0.6,0.4-0.8,0.8c-0.2,0.3-0.4,0.8-0.5,1.2s-0.2,1-0.2,1.6
		c0,0.6,0.1,1.2,0.2,1.7s0.3,0.9,0.5,1.2c0.2,0.3,0.5,0.6,0.8,0.8C264.5,272.6,264.9,272.7,265.4,272.7z"/>
	<path id="XMLID_2519_" class="st1" d="M271.3,263.7c0.1,0,0.2,0,0.4,0c0.1,0,0.3,0,0.4,0s0.3,0,0.4,0c0.2,0,0.3,0,0.4,0l2.6,6.3
		l2.6-6.3c0.1,0,0.2,0,0.4,0c0.1,0,0.3,0,0.4,0c0.1,0,0.3,0,0.4,0c0.1,0,0.3,0,0.4,0l0.5,10.1c-0.1,0-0.2,0-0.3,0s-0.2,0-0.4,0
		c-0.1,0-0.2,0-0.4,0s-0.2,0-0.3,0l-0.3-7.8l-2.5,5.8c-0.2,0-0.4,0-0.6,0c-0.2,0-0.4,0-0.5,0l-2.4-5.8l-0.3,7.9c-0.1,0-0.2,0-0.3,0
		s-0.2,0-0.3,0c-0.1,0-0.2,0-0.4,0s-0.2,0-0.3,0L271.3,263.7z"/>
	<path id="XMLID_2521_" class="st1" d="M284.4,263.7c0.1,0,0.2,0,0.4,0c0.1,0,0.2,0,0.4,0c0.1,0,0.2,0,0.4,0c0.1,0,0.2,0,0.4,0v4.2
		h4.3v-4.2c0.1,0,0.2,0,0.3,0c0.1,0,0.2,0,0.4,0c0.1,0,0.2,0,0.4,0c0.1,0,0.2,0,0.4,0v10.1c-0.1,0-0.2,0-0.3,0c-0.1,0-0.2,0-0.4,0
		c-0.1,0-0.2,0-0.4,0c-0.1,0-0.2,0-0.3,0v-4.7h-4.3v4.7c-0.1,0-0.2,0-0.3,0s-0.2,0-0.4,0c-0.1,0-0.2,0-0.4,0c-0.1,0-0.2,0-0.3,0
		V263.7z"/>
	<path id="XMLID_2523_" class="st1" d="M293.3,263.7h5.5c0,0.2,0,0.4,0,0.6c0,0.1,0,0.2,0,0.3s0,0.2,0,0.3h-4.1v2.9h3.3
		c0,0.1,0,0.2,0,0.3c0,0.1,0,0.2,0,0.3c0,0.1,0,0.2,0,0.3c0,0.1,0,0.2,0,0.3h-3.3v3.5h4.2c0,0.2,0,0.4,0,0.6c0,0.1,0,0.2,0,0.3
		s0,0.2,0,0.3h-5.7V263.7z"/>
	<path id="XMLID_2525_" class="st1" d="M300.2,263.7c0.2,0,0.4,0,0.6-0.1s0.3,0,0.5,0c0.2,0,0.3,0,0.5,0c0.2,0,0.4,0,0.6,0
		c0.5,0,0.9,0,1.4,0.1s0.9,0.3,1.2,0.5c0.4,0.2,0.7,0.5,0.9,0.9c0.2,0.4,0.3,0.9,0.3,1.5c0,0.4-0.1,0.7-0.2,1
		c-0.1,0.3-0.3,0.6-0.5,0.8c-0.2,0.2-0.4,0.4-0.6,0.6s-0.5,0.3-0.7,0.4l-0.2,0.1l2.9,4.3c-0.3,0-0.5,0-0.9,0c-0.3,0-0.5,0-0.8,0
		l-3.2-4.7V269l0.1,0c0.3-0.1,0.5-0.2,0.8-0.3s0.5-0.3,0.8-0.4c0.2-0.2,0.4-0.4,0.6-0.7c0.2-0.3,0.2-0.6,0.2-0.9
		c0-0.7-0.2-1.2-0.6-1.5s-0.9-0.5-1.6-0.5c-0.2,0-0.3,0-0.4,0c-0.1,0-0.3,0-0.5,0v9c-0.1,0-0.2,0-0.3,0c-0.1,0-0.2,0-0.4,0
		s-0.2,0-0.4,0s-0.3,0-0.4,0V263.7z"/>
	<path id="XMLID_2527_" class="st1" d="M307.8,263.7h5.5c0,0.2,0,0.4,0,0.6c0,0.1,0,0.2,0,0.3s0,0.2,0,0.3h-4.1v2.9h3.3
		c0,0.1,0,0.2,0,0.3c0,0.1,0,0.2,0,0.3c0,0.1,0,0.2,0,0.3c0,0.1,0,0.2,0,0.3h-3.3v3.5h4.2c0,0.2,0,0.4,0,0.6c0,0.1,0,0.2,0,0.3
		s0,0.2,0,0.3h-5.7V263.7z"/>
</g>
<g id="XMLID_388_">
	<g id="XMLID_404_">
		<path id="XMLID_1800_" class="st1" d="M250.1,110c-7,7-9,13.9-9.1,23.8c0,9.9,1.8,16.7,8.8,23.8
			C262.3,144.8,262.5,122.9,250.1,110z"/>
	</g>
	<g id="XMLID_403_">
		<path id="XMLID_1799_" class="st1" d="M303.5,120.6c-9.1,3.8-13.6,9.3-17.4,18.4c-3.8,9.1-4.7,16.2-0.9,25.3
			C301.5,157.4,310,137.3,303.5,120.6z"/>
	</g>
	<g id="XMLID_402_">
		<path id="XMLID_1798_" class="st1" d="M348.9,151.5c-9.9-0.1-16.2,3.4-23.2,10.3c-7,6.9-10.6,13.1-10.8,23
			C332.8,184.6,348.5,169.3,348.9,151.5z"/>
	</g>
	<g id="XMLID_401_">
		<path id="XMLID_1797_" class="st1" d="M379.4,196.8c-9.1-3.9-16.2-3.1-25.3,0.5c-9.1,3.6-14.8,8-18.7,17.1
			C351.8,221.2,372.2,213.1,379.4,196.8z"/>
	</g>
	<g id="XMLID_400_">
		<path id="XMLID_1796_" class="st1" d="M390.3,249.8c-7-7-14-8.8-23.8-8.8c-9.9,0-16.7,1.9-23.8,9
			C355.7,262.3,377.6,262.3,390.3,249.8z"/>
	</g>
	<g id="XMLID_399_">
		<path id="XMLID_1795_" class="st1" d="M379.3,304.1c-3.8-9.1-9.3-13.6-18.4-17.4c-9.1-3.8-16.2-4.7-25.3-1
			C342.6,302,362.7,310.6,379.3,304.1z"/>
	</g>
	<g id="XMLID_398_">
		<path id="XMLID_1794_" class="st1" d="M349,349.2c0-9.9-3.5-16.2-10.4-23.1c-6.9-7-13.1-10.5-23-10.6
			C315.8,333.3,331.3,348.9,349,349.2z"/>
	</g>
	<g id="XMLID_397_">
		<path id="XMLID_1793_" class="st1" d="M303.1,379.4c3.9-9.1,3.1-16.2-0.5-25.3s-8-14.8-17.1-18.7
			C278.7,351.7,286.7,372.1,303.1,379.4z"/>
	</g>
	<g id="XMLID_396_">
		<path id="XMLID_1792_" class="st1" d="M249.5,390c7-6.9,9.1-13.8,9.2-23.6c0.1-9.9-1.7-16.7-8.6-23.9
			C237.5,355.2,237.3,377.1,249.5,390z"/>
	</g>
	<g id="XMLID_395_">
		<path id="XMLID_1791_" class="st1" d="M196.4,379.9c9.1-3.8,13.5-9.5,17.3-18.6c3.8-9.1,4.5-16.2,0.8-25.3
			C198.2,343,189.8,363.3,196.4,379.9z"/>
	</g>
	<g id="XMLID_394_">
		<path id="XMLID_1790_" class="st1" d="M150.7,349.2c9.9,0,16.1-3.6,23.1-10.5c6.9-7,10.4-13.2,10.4-23.1
			C166.4,315.9,151,331.5,150.7,349.2z"/>
	</g>
	<g id="XMLID_393_">
		<path id="XMLID_1789_" class="st1" d="M120.2,303.2c9.1,3.8,16.2,3,25.3-0.6c9.1-3.6,14.8-8,18.7-17.1
			C147.7,278.5,127.3,286.8,120.2,303.2z"/>
	</g>
	<g id="XMLID_392_">
		<path id="XMLID_1788_" class="st1" d="M109.7,249.7c7,7,13.9,9,23.8,9.1c9.9,0,16.7-1.8,23.8-8.8
			C144.5,237.5,122.5,237.3,109.7,249.7z"/>
	</g>
	<g id="XMLID_391_">
		<path id="XMLID_1787_" class="st1" d="M121,195.9c3.6,9.2,9.3,13.6,18.3,17.5c9,3.9,16.1,4.8,25.3,1.2
			C157.7,198.1,137.6,189.6,121,195.9z"/>
	</g>
	<g id="XMLID_390_">
		<path id="XMLID_1762_" class="st1" d="M151.2,150.5c-0.1,9.9,3.4,16.2,10.3,23.2s13.1,10.6,23,10.8
			C184.3,166.7,169,151,151.2,150.5z"/>
	</g>
	<g id="XMLID_389_">
		<path id="XMLID_52_" class="st1" d="M196,120.1c-3.8,9.1-2.9,16.2,0.9,25.3c3.8,9.1,8.2,14.7,17.4,18.6
			C220.8,147.5,212.4,127.3,196,120.1z"/>
	</g>
</g>
</svg>
