<?xml version="1.0" encoding="utf-8"?>
<!-- Generator: Adobe Illustrator 19.0.0, SVG Export Plug-In . SVG Version: 6.00 Build 0)  -->
<svg version="1.1" id="圖層_1" xmlns="http://www.w3.org/2000/svg" xmlns:xlink="http://www.w3.org/1999/xlink" x="0px" y="0px"
	 width="500px" height="500px" viewBox="0 0 500 500" style="enable-background:new 0 0 500 500;" xml:space="preserve">
<style type="text/css">
	.st0{fill:url(#XMLID_3_);}
	.st1{fill:#FFFFFF;}
</style>
<linearGradient id="XMLID_3_" gradientUnits="userSpaceOnUse" x1="500" y1="250" x2="-2.244815e-008" y2="250">
	<stop  offset="0" style="stop-color:#CCCCCC"/>
	<stop  offset="1" style="stop-color:#434343"/>
</linearGradient>
<rect id="XMLID_37_" class="st0" width="500" height="500"/>
<g id="XMLID_1_">
	<g id="XMLID_760_">
		<g id="XMLID_1289_">
			<path id="XMLID_4_" class="st1" d="M290.6,205.5c0.5-1.5,0.8-2.9,0.8-4.1c0-3.5-2-5.3-6.1-5.3h-3.3l35.4-31.5H304l-45.2,41.2
				l10.5-31.2c0.6-1.7,0.9-3.1,0.9-4.4c0-3.7-2.5-5.6-7.4-5.6h-3.6h-23.4h-3.6c-4.9,0-7.4,1.9-7.4,5.6c0,1.3,0.3,2.7,0.9,4.4
				l10.5,31.2L191,164.6h-13.5l35.4,31.5h-3.3c-4,0-6.1,1.8-6.1,5.3c0,1.2,0.3,2.5,0.8,4.1l4.6,13.1h-18c1.3,4.6,5.5,6.9,12.6,6.9
				h15.2c4.2,0,6.2-1.5,6.2-4.6c0-0.7-0.1-1.5-0.4-2.3l-5.8-17.3l19.3,17.2l-2.5,7h7.3c1.6,0,3.1-0.2,4.5-0.6
				c1.4,0.4,2.9,0.6,4.5,0.6h7.3l-2.5-7l19.3-17.2l-5.8,17.3c-0.3,0.8-0.4,1.6-0.4,2.3c0,3.1,2.1,4.6,6.2,4.6h15.2
				c7.1,0,11.3-2.3,12.6-6.9h-18L290.6,205.5z M241.6,175.5h11.8l-5.9,16.7L241.6,175.5z"/>
		</g>
	</g>
	<g id="XMLID_751_">
		<g id="XMLID_752_">
			<path id="XMLID_5_" class="st1" d="M145.8,307.7h-7.2c0-0.2-1.2-2.1-3.7-5.7c-2.9-4.1-5.5-7.5-7.9-10.2c-3.2-3.6-5.6-5.5-7.2-5.5
				h-1c0,5.1,0.1,12.2,0.3,21.3h-6.1c0.3-6.7,0.5-14.2,0.5-22.3c0-7.7-0.2-14.4-0.5-20.2h6.1c-0.2,5.8-0.3,11.7-0.3,17.6h0.8
				c1.2,0,4.2-2.8,9-8.3c4.8-5.6,7.2-8.7,7.2-9.3h6.8c0,0.7-2.3,3.3-7,8.1c-4.6,4.7-8.1,7.9-10.4,9.6v0.3c2.5,1,6.7,5.3,12.5,13
				C143.1,303.2,145.8,307.1,145.8,307.7z"/>
		</g>
		<g id="XMLID_756_">
			<path id="XMLID_6_" class="st1" d="M158.9,307.7h-6.2c0.3-7.1,0.5-14.5,0.5-22.3c0-7.7-0.2-14.4-0.5-20.2h6.2
				c-0.3,5.9-0.5,12.7-0.5,20.2C158.4,293.2,158.6,300.7,158.9,307.7z"/>
		</g>
		<g id="XMLID_766_">
			<path id="XMLID_7_" class="st1" d="M204,307.7h-4.6c0-0.4-3.6-5.6-10.7-15.6c-7.5-10.6-11.7-17.2-12.8-20h-0.3
				c0.4,5.2,0.6,9.7,0.6,13.5c0,7.3,0.2,14.7,0.5,22.1h-5.5c0.4-7.1,0.6-14.5,0.6-22.3c0-7.7-0.2-14.4-0.6-20.2h6.3
				c0,0.6,3.3,5.6,9.9,14.9c6.9,9.8,10.8,16.2,11.8,19.1h0.3c-0.4-5.3-0.6-9.8-0.6-13.5c0-8.1-0.2-14.9-0.5-20.5h5.6
				c-0.4,5.8-0.6,12.5-0.6,20.2C203.4,293.2,203.6,300.6,204,307.7z"/>
		</g>
		<g id="XMLID_772_">
			<path id="XMLID_8_" class="st1" d="M247.3,306.8c-3.6,1.2-7.2,1.8-10.8,1.8c-7.6,0-13.4-2-17.3-6.1c-3.9-4.1-5.8-9.1-5.8-15.1
				c0-6.1,2.1-11.4,6.3-15.9c4.2-4.5,10.1-6.8,17.6-6.8c2.7,0,5.3,0.3,7.7,0.9l-0.8,5.4c-3.6-0.9-6.5-1.3-8.7-1.3
				c-5.3,0-9.3,1.6-12.1,4.8c-2.8,3.2-4.2,7.1-4.2,11.9c0,4.7,1.6,8.9,4.8,12.5c3.2,3.6,7.7,5.4,13.6,5.4c1.1,0,2.7-0.2,4.8-0.5
				c-0.4-2.3-0.6-4.9-0.6-7.9c0-2.5-0.2-5-0.5-7.4h5.9c-0.2,2.9-0.3,5.9-0.3,9.1C247,298.8,247.1,301.9,247.3,306.8z"/>
		</g>
		<g id="XMLID_782_">
			<path id="XMLID_9_" class="st1" d="M303.3,307.7h-6.1c0-4.9-0.3-11.9-1-21.1c-0.7-9.2-1-14.7-1.1-16.5h-0.3
				c-2.2,7.1-4.9,14.8-8.3,23c-3.3,8.3-5,13.1-5,14.6H277c0-1.5-1.6-6.5-4.7-14.8c-3.1-8.4-5.1-13.9-5.9-16.8
				c-0.8-2.8-1.4-4.8-1.7-6h-0.3c-0.1,3-0.5,9-1.3,18.1c-0.8,9.1-1.2,15.6-1.2,19.5h-5.6c0-0.2,0.7-6.2,2.2-18
				c1.5-11.8,2.2-20,2.2-24.5h8.6c0,2.4,1.7,8.4,5.2,18c3.5,9.6,5.2,15.4,5.2,17.4h0.3c0-2,2-7.8,5.9-17.5
				c3.9-9.6,5.9-15.6,5.9-17.9h8.4c0,4.6,0.5,12.7,1.5,24.4C302.8,301.3,303.3,307.3,303.3,307.7z"/>
		</g>
		<g id="XMLID_785_">
			<path id="XMLID_10_" class="st1" d="M349.6,307.7h-6.9c0-1.5-1.4-6-4.1-13.8h-18.8c-2.7,7.6-4.1,12.2-4.1,13.8h-6.6
				c0-0.8,2.8-7.8,8.4-20.9c5.6-13.1,8.4-20.3,8.4-21.6h7.6c0,1.3,2.7,8.4,8,21.3C346.9,299.4,349.6,306.5,349.6,307.7z
				 M337.1,289.7c-5.1-12.8-7.7-19.6-7.7-20.4H329c0,0.7-2.6,7.5-7.9,20.4H337.1z"/>
		</g>
		<g id="XMLID_808_">
			<path id="XMLID_11_" class="st1" d="M386.9,307.7h-7.1c0-0.8-1.6-4-4.9-9.4c-3.2-5.2-5.5-8.8-7-10.6h-0.4
				c-1.3,1.8-3.3,5.2-6.1,10.4c-2.9,5.4-4.3,8.6-4.3,9.7h-6.9c0-0.7,2.3-4.4,6.9-11.3c4.6-6.8,7.4-10.7,8.5-11.8v-0.3
				c-1.2-1.3-3.6-4.7-7.3-10c-3.8-5.5-5.7-8.6-5.7-9.1h7c0,0.7,1.3,3.2,3.9,7.6c2.6,4.3,4.4,7.1,5.5,8.4h0.3
				c1.1-1.3,2.9-4.2,5.3-8.5c2.4-4.3,3.6-6.8,3.6-7.5h6.9c0,0.6-2,3.6-6,8.8c-3.9,5.1-6.5,8.3-7.9,9.7v0.3c1.7,1.9,4.6,6,8.8,12.4
				C384.7,303.1,386.9,306.8,386.9,307.7z"/>
		</g>
	</g>
	<g id="XMLID_31_">
		<g id="XMLID_33_">
			<path id="XMLID_12_" class="st1" d="M154.7,322h3.1c4,0,6,2.5,6,6.5c0,4-2,6.6-6,6.6h-3.1V322z M157.7,334.2c3.5,0,5-2.3,5-5.7
				c0-3.4-1.5-5.6-5-5.6h-1.9v11.3H157.7z"/>
		</g>
		<g id="XMLID_36_">
			<path id="XMLID_13_" class="st1" d="M172.5,330.7h-5.1l-1.5,4.4h-1.1l4.6-13.1h1.1l4.6,13.1H174L172.5,330.7z M172.3,329.9
				l-0.8-2.4c-0.5-1.5-1-2.9-1.4-4.5H170c-0.5,1.6-0.9,3-1.4,4.5l-0.8,2.4H172.3z"/>
		</g>
		<g id="XMLID_91_">
			<path id="XMLID_14_" class="st1" d="M179.1,322.9h-4.1V322h9.4v0.9h-4.1v12.2h-1.1V322.9z"/>
		</g>
		<g id="XMLID_138_">
			<path id="XMLID_15_" class="st1" d="M191.9,330.7h-5.1l-1.5,4.4h-1.1l4.6-13.1h1.1l4.6,13.1h-1.2L191.9,330.7z M191.6,329.9
				l-0.8-2.4c-0.5-1.5-1-2.9-1.4-4.5h-0.1c-0.5,1.6-0.9,3-1.4,4.5l-0.8,2.4H191.6z"/>
		</g>
		<g id="XMLID_224_">
			<path id="XMLID_16_" class="st1" d="M199.6,333.4l0.7-0.8c1,1.1,2.3,1.7,3.8,1.7c1.9,0,3.2-1,3.2-2.5c0-1.6-1-2.1-2.3-2.7l-2-0.9
				c-1.2-0.5-2.7-1.4-2.7-3.3c0-1.9,1.7-3.3,3.9-3.3c1.6,0,2.9,0.7,3.7,1.6l-0.6,0.7c-0.8-0.8-1.8-1.3-3.1-1.3
				c-1.7,0-2.8,0.9-2.8,2.2c0,1.5,1.3,2.1,2.2,2.5l2,0.9c1.5,0.7,2.8,1.5,2.8,3.5c0,2-1.7,3.6-4.2,3.6
				C202.1,335.4,200.6,334.6,199.6,333.4z"/>
		</g>
		<g id="XMLID_232_">
			<path id="XMLID_17_" class="st1" d="M213.4,322.9h-4.1V322h9.4v0.9h-4.1v12.2h-1.1V322.9z"/>
		</g>
		<g id="XMLID_279_">
			<path id="XMLID_18_" class="st1" d="M219.8,328.5c0-4.2,2.3-6.8,5.4-6.8c3.2,0,5.5,2.6,5.5,6.8c0,4.2-2.3,6.8-5.5,6.8
				C222.1,335.4,219.8,332.7,219.8,328.5z M229.6,328.5c0-3.6-1.7-5.8-4.3-5.8c-2.6,0-4.3,2.2-4.3,5.8c0,3.6,1.7,5.9,4.3,5.9
				C227.9,334.4,229.6,332.1,229.6,328.5z"/>
		</g>
		<g id="XMLID_288_">
			<path id="XMLID_19_" class="st1" d="M241,335.1l-3.5-5.9h-2.7v5.9h-1.1V322h3.8c2.6,0,4.4,1,4.4,3.5c0,2.1-1.3,3.3-3.3,3.6l3.5,6
				H241z M234.8,328.3h2.5c2.3,0,3.5-0.9,3.5-2.8c0-1.9-1.3-2.6-3.5-2.6h-2.5V328.3z"/>
		</g>
		<g id="XMLID_366_">
			<path id="XMLID_20_" class="st1" d="M250.6,330.7h-5.1l-1.5,4.4h-1.1l4.6-13.1h1.1l4.6,13.1h-1.2L250.6,330.7z M250.3,329.9
				l-0.8-2.4c-0.5-1.5-1-2.9-1.4-4.5H248c-0.5,1.6-0.9,3-1.4,4.5l-0.8,2.4H250.3z"/>
		</g>
		<g id="XMLID_407_">
			<path id="XMLID_21_" class="st1" d="M254.2,328.6c0-4.2,2.4-6.8,5.9-6.8c1.8,0,2.9,0.8,3.6,1.6l-0.6,0.7c-0.7-0.7-1.6-1.3-3-1.3
				c-2.9,0-4.7,2.2-4.7,5.8c0,3.6,1.7,5.9,4.7,5.9c1.1,0,2.2-0.3,2.8-0.9v-3.9h-3v-0.9h4.1v5.3c-0.8,0.9-2.2,1.5-3.9,1.5
				C256.5,335.4,254.2,332.8,254.2,328.6z"/>
		</g>
		<g id="XMLID_409_">
			<path id="XMLID_22_" class="st1" d="M267.2,322h7.3v0.9h-6.2v4.8h5.2v0.9h-5.2v5.6h6.4v0.9h-7.5V322z"/>
		</g>
		<g id="XMLID_411_">
			<path id="XMLID_23_" class="st1" d="M281.5,322h7.3v0.9h-6.2v4.8h5.2v0.9h-5.2v5.6h6.4v0.9h-7.5V322z"/>
		</g>
		<g id="XMLID_413_">
			<path id="XMLID_24_" class="st1" d="M294.1,328.3l-3.7-6.3h1.2l2.1,3.7c0.4,0.6,0.6,1.1,1.1,1.8h0.1c0.4-0.7,0.6-1.2,1-1.8
				l2.1-3.7h1.1l-3.7,6.4l3.9,6.7h-1.2l-2.2-3.9c-0.4-0.6-0.7-1.3-1.2-2.1h-0.1c-0.4,0.8-0.8,1.5-1.1,2.1l-2.2,3.9h-1.1L294.1,328.3
				z"/>
		</g>
		<g id="XMLID_416_">
			<path id="XMLID_25_" class="st1" d="M301.5,322h3.4c3,0,4.8,1,4.8,3.7c0,2.6-1.8,3.9-4.7,3.9h-2.4v5.5h-1.1V322z M304.8,328.7
				c2.6,0,3.8-0.9,3.8-3c0-2.1-1.3-2.8-3.9-2.8h-2.1v5.8H304.8z"/>
		</g>
		<g id="XMLID_419_">
			<path id="XMLID_26_" class="st1" d="M312.5,322h7.3v0.9h-6.2v4.8h5.2v0.9h-5.2v5.6h6.4v0.9h-7.5V322z"/>
		</g>
		<g id="XMLID_421_">
			<path id="XMLID_27_" class="st1" d="M330.1,335.1l-3.5-5.9h-2.7v5.9h-1.1V322h3.8c2.6,0,4.4,1,4.4,3.5c0,2.1-1.3,3.3-3.3,3.6
				l3.5,6H330.1z M323.9,328.3h2.5c2.3,0,3.5-0.9,3.5-2.8c0-1.9-1.3-2.6-3.5-2.6h-2.5V328.3z"/>
		</g>
		<g id="XMLID_424_">
			<path id="XMLID_28_" class="st1" d="M336.4,322.9h-4.1V322h9.4v0.9h-4.1v12.2h-1.1V322.9z"/>
		</g>
	</g>
</g>
</svg>
