<?xml version="1.0" encoding="utf-8"?>
<!-- Generator: Adobe Illustrator 19.0.0, SVG Export Plug-In . SVG Version: 6.00 Build 0)  -->
<svg version="1.1" id="圖層_1" xmlns="http://www.w3.org/2000/svg" xmlns:xlink="http://www.w3.org/1999/xlink" x="0px" y="0px"
	 width="500px" height="500px" viewBox="0 0 500 500" style="enable-background:new 0 0 500 500;" xml:space="preserve">
<style type="text/css">
	.st0{fill:#E7692C;}
	.st1{fill:#FFFFFF;}
</style>
<rect id="XMLID_268_" class="st0" width="500" height="500"/>
<g id="XMLID_266_">
	<path id="XMLID_265_" class="st1" d="M168.4,281.1v51.8h-9.3V301l-6.1,31.9h-6.4l-5.9-31.9h-0.1v31.9h-9.3v-51.8h12.5l5.9,31h0.1
		l6-31H168.4z"/>
	<path id="XMLID_2119_" class="st1" d="M202.4,292v29.9c0,5.3-4.1,11.7-13.4,11.7c-10.2,0-13.8-6.4-13.8-11.7V292
		c0-5.3,3.6-11.5,13.8-11.5C198.2,280.4,202.4,286.6,202.4,292z M193.1,292c0-1.6-1.5-4.4-4.1-4.4c-3.3,0-4.6,2.8-4.6,4.2v29.8
		c0,1.7,1.3,4.4,4.6,4.4c2.7,0,4.1-2.9,4.1-4.4V292z"/>
	<path id="XMLID_2122_" class="st1" d="M230.1,332.9l-8.8-20.9c-1.3,0-2.6,0-3,0v20.9h-9.2v-51.8h15.5c8.9,0,13.1,6.5,13.1,14.8
		c0,7.7-3.3,12.7-7.8,14.9l9.8,22.1H230.1z M218.3,304.2h3c6,0,7.6-0.7,7.6-8.3c0-4.1-1-7.4-4.6-7.4h-6V304.2z"/>
	<path id="XMLID_2125_" class="st1" d="M270.6,292v29.9c0,5.3-4.1,11.7-13.4,11.7c-10.2,0-13.8-6.4-13.8-11.7V292
		c0-5.3,3.6-11.5,13.8-11.5C266.5,280.4,270.6,286.6,270.6,292z M261.4,292c0-1.6-1.5-4.4-4.1-4.4c-3.3,0-4.6,2.8-4.6,4.2v29.8
		c0,1.7,1.3,4.4,4.6,4.4c2.7,0,4.1-2.9,4.1-4.4V292z"/>
	<path id="XMLID_2128_" class="st1" d="M304.9,318.1c0,8.4-4.9,14.8-13.8,14.8h-13.8v-51.8h12c8.6,0,13.5,4.8,13.5,13
		c0,4.4-2,9.3-5.8,10.8C301.8,307,304.9,310.9,304.9,318.1z M286.6,300.8h0.4c6.6,0,7.7-1.4,7.7-6.4c0-3.7-1.4-5.9-4.7-5.9h-3.5
		V300.8z M289.7,325.5c3.7,0,6.4-3.3,6.4-7.4c0-5.6-1.7-9.5-7.6-9.5h-1.9v16.9H289.7z"/>
	<path id="XMLID_2132_" class="st1" d="M337.1,292v29.9c0,5.3-4.1,11.7-13.4,11.7c-10.2,0-13.8-6.4-13.8-11.7V292
		c0-5.3,3.6-11.5,13.8-11.5C333,280.4,337.1,286.6,337.1,292z M327.9,292c0-1.6-1.5-4.4-4.1-4.4c-3.3,0-4.6,2.8-4.6,4.2v29.8
		c0,1.7,1.3,4.4,4.6,4.4c2.7,0,4.1-2.9,4.1-4.4V292z"/>
	<path id="XMLID_2135_" class="st1" d="M368.8,288.4h-9.5v44.5H350v-44.5h-9.5v-7.3h28.3V288.4z"/>
</g>
<g id="XMLID_226_">
	<g id="XMLID_261_">
		<path id="XMLID_3_" class="st1" d="M287.3,215.7c0,1.8-0.6,3.2-1.7,4.3c-1.1,1.1-2.4,1.6-3.9,1.6c-2,0-3.8-0.8-5.3-2.5
			c-1.7-1.9-2.6-4.3-2.6-7.2c0-0.6,0-1.2,0-1.8s0-1.2,0-1.8c0-0.7,0-1.2,0.1-1.6c0.6-3.6,1.1-7.1,1.5-10.5c0.4-3.4,0.6-5.8,0.6-7.2
			v-4.4c0-1.9-0.5-3.5-1.5-5c-1-1.5-2.3-2.2-3.8-2.2c-1.1,0-2.6,1.2-4.5,3.5c-2.4,2.9-4.9,7.2-7.6,12.7c-1.5,2.9-3,5.8-4.5,8.8
			c-1.5,3-3.1,5.7-4.6,8.3c-0.9,1.5-1.8,3.1-2.6,4.6c-1.3,1.9-2.5,2.9-3.5,2.9c-0.7,0-1.2-0.2-1.5-0.6c-0.3-0.4-0.4-1.2-0.4-2.5
			c0-2,0.6-5.3,1.9-10c1.2-4,2.4-8.2,3.6-12.5c1.3-4.3,1.9-7.1,1.9-8.4c0-0.7-0.2-1.4-0.6-2.1c-0.4-0.7-0.9-1-1.6-1
			c-1.5,0-3.9,2.6-7.1,7.7c-3,4.8-5.5,9.7-7.5,14.7c-0.8,2-1.7,4-2.6,6s-2.6,5.6-5.2,10.8c-0.4,0.9-0.8,1.8-1.2,2.7
			c-1,2-1.9,3-2.8,3c-0.7,0-1.2-0.4-1.6-1.3c-0.4-0.9-0.6-1.6-0.6-2.1c0.6-2.3,1.2-4.6,1.7-6.9c1.4-5.6,2.5-10.5,3.3-14.8
			c1.2-6.3,1.8-11.1,1.8-14.4v-6.8c-0.2-1.1-0.4-1.9-0.5-2.4c-0.5-1.7-1.2-2.5-2-2.5c-0.7,0-1.3,1.1-1.8,3.3
			c-0.5,2.2-1.4,3.3-2.6,3.3c-1.4,0-2.8-0.5-4.1-1.6c-1.9-1.4-2.8-3.4-2.8-6c0.4-2.6,0.8-4.5,1.2-5.7c1.2-3.8,2.8-5.7,4.8-5.7
			c2.7,0,5.3,1.3,7.8,3.8c3.1,3,4.6,6.8,4.6,11.2V188l-1.2,7.1v1.5c1.9-0.5,3.8-2.5,5.9-6c3.2-5.6,5.2-8.8,5.7-9.5
			c2.6-3.3,5.6-4.9,8.9-4.9c1.7,0,2.9,0.5,3.6,1.4s1.1,2.2,1.1,3.8v3.8c0,0-0.1,0-0.1,0.1c-0.3,0.7-0.7,2.5-1.2,5.5h0.9
			c1.2-0.7,3.3-3.4,6.5-8c3.8-5.6,6.7-9.5,8.7-11.7c3.6-4.1,6.7-6.1,9.4-6.1c1.7,0,3.3,1.1,4.9,3.3c1.9,2.7,2.9,6,2.9,10.1v9.6
			c-0.7,3.8-1.3,7.4-1.8,10.8s-0.7,6.3-0.7,8.4c0,2.2,0.7,4,2,5.2C286.6,213.7,287.3,214.8,287.3,215.7z"/>
	</g>
</g>
<g id="XMLID_264_">
	<path id="XMLID_237_" class="st1" d="M194.8,360l5.6-12.3c0.1-0.2,0.2-0.3,0.4-0.3c0.2,0,0.4,0.1,0.5,0.3L207,360h-1.1l-1.6-3.5
		h-6.8l-1.6,3.5H194.8z M197.9,355.6h5.9l-3-6.5L197.9,355.6z"/>
	<path id="XMLID_2098_" class="st1" d="M208.1,347.4h1V360h-1V347.4z"/>
	<path id="XMLID_2100_" class="st1" d="M220.7,347.4c1.3,0,2.4,0.5,3.3,1.4c0.9,0.9,1.4,2,1.4,3.3s-0.5,2.4-1.4,3.3
		c-0.9,0.9-2,1.4-3.3,1.4h-5.4v3.2h-1v-12.1c0-0.1,0.1-0.3,0.2-0.4c0.1-0.1,0.2-0.1,0.4-0.1L220.7,347.4L220.7,347.4z M220.7,355.8
		c1,0,1.9-0.4,2.6-1.1s1.1-1.6,1.1-2.6s-0.4-1.9-1.1-2.6s-1.6-1.1-2.6-1.1v0h-5.4v7.4H220.7z"/>
	<path id="XMLID_2103_" class="st1" d="M228.5,358.2c-1.2-1.2-1.9-2.7-1.9-4.5s0.6-3.2,1.9-4.5c1.2-1.2,2.7-1.8,4.5-1.8
		s3.2,0.6,4.5,1.8c1.2,1.2,1.9,2.7,1.9,4.5s-0.6,3.2-1.9,4.5c-1.2,1.2-2.7,1.9-4.5,1.9S229.7,359.4,228.5,358.2z M229.2,350
		c-1,1-1.6,2.3-1.6,3.8s0.5,2.7,1.6,3.8s2.3,1.6,3.8,1.6s2.7-0.5,3.8-1.6s1.6-2.3,1.6-3.8s-0.5-2.7-1.6-3.8s-2.3-1.6-3.8-1.6
		S230.2,348.9,229.2,350z"/>
	<path id="XMLID_2106_" class="st1" d="M258,347.4l-4.3,12.3c-0.1,0.2-0.2,0.3-0.5,0.3s-0.4-0.1-0.5-0.3l-3.6-10.3l-3.6,10.3
		c-0.1,0.2-0.2,0.3-0.5,0.3c-0.2,0-0.4-0.1-0.5-0.3l-4.3-12.3h1.1L245,358l3.6-10.3c0.1-0.2,0.2-0.3,0.5-0.3c0.2,0,0.4,0.1,0.5,0.3
		l3.6,10.3l3.7-10.6H258z"/>
	<path id="XMLID_2108_" class="st1" d="M259.8,348.4l0,4.8l7.3,0v1l-7.3,0l0,4.8l8.3,0v1l-8.8,0c-0.1,0-0.3,0-0.4-0.1
		s-0.2-0.2-0.2-0.4l0-11.6c0-0.1,0.1-0.3,0.2-0.4c0.1-0.1,0.2-0.1,0.4-0.1l8.8,0v1L259.8,348.4z"/>
	<path id="XMLID_2110_" class="st1" d="M269.5,360v-12.1c0-0.1,0-0.3,0.1-0.4c0.1-0.1,0.2-0.1,0.4-0.1h5.5v0c1.2,0,2.2,0.4,3,1.3
		c0.8,0.8,1.3,1.9,1.3,3c0,1-0.3,1.9-0.9,2.7c-0.6,0.8-1.4,1.3-2.4,1.5l3.3,4.1h-1.3l-3.2-4h-4.8v4H269.5z M270.5,355h5
		c0.9,0,1.7-0.3,2.3-1s1-1.4,1-2.3c0-0.9-0.3-1.7-1-2.3s-1.4-1-2.3-1v0h-5V355z"/>
	<path id="XMLID_2113_" class="st1" d="M282.2,348.4l0,4.8l7.3,0v1l-7.3,0l0,4.8l8.3,0v1l-8.8,0c-0.1,0-0.3,0-0.4-0.1
		s-0.1-0.2-0.1-0.4l0-11.6c0-0.1,0-0.3,0.1-0.4c0.1-0.1,0.2-0.1,0.4-0.1l8.8,0v1L282.2,348.4z"/>
	<path id="XMLID_2115_" class="st1" d="M292.4,360c-0.1,0-0.3,0-0.4-0.1c-0.1-0.1-0.2-0.2-0.2-0.4v-11.6c0-0.1,0.1-0.3,0.2-0.4
		c0.1-0.1,0.2-0.1,0.4-0.1h4.8c1.7,0,3.2,0.6,4.5,1.9c1.2,1.2,1.9,2.7,1.9,4.5s-0.6,3.2-1.9,4.5c-1.2,1.2-2.7,1.9-4.5,1.9H292.4z
		 M292.9,359h4.3c1.5,0,2.7-0.5,3.8-1.6s1.6-2.3,1.6-3.8S302,351,301,350s-2.3-1.6-3.8-1.6h-4.3V359z"/>
</g>
<g id="XMLID_151_">
	<g id="XMLID_865_">
		<path id="XMLID_1508_" class="st1" d="M249.2,136.9c34.1,0,62.1,21.7,65.9,49.6h3.9c-3.7-35.1-33.6-62.6-69.8-62.6
			c-36.1,0-66,27.5-69.7,62.6h3.9C187.1,158.6,215.2,136.9,249.2,136.9z M249.2,127.6c21.5,0,40.6,10.2,52.7,26.2
			c-12.8-12.3-31.6-20.2-52.7-20.2c-21,0-39.9,7.8-52.7,20.2C208.7,138,227.8,127.6,249.2,127.6z"/>
	</g>
	<g id="XMLID_152_">
		<path id="XMLID_1507_" class="st1" d="M319.3,198.9h-3.8c-2.7,29.6-31.3,53.1-66.1,53.1s-63.5-23.4-66.2-53.1h-3.8
			c0,0.1,0,0.2,0,0.3l0,0c2.7,36.3,33.1,65,70,65c37,0,67.3-28.7,70-65l0,0C319.3,199.1,319.3,199,319.3,198.9z M249.2,260.3
			c-20.8,0-39.4-9.7-51.6-24.7c12.8,12.1,31.2,19.7,51.6,19.7c20.4,0,38.7-7.6,51.6-19.7C288.7,250.7,270,260.3,249.2,260.3z"/>
	</g>
</g>
</svg>
